<?xml version="1.0" standalone="no"?>
<!DOCTYPE svg PUBLIC "-//W3C//DTD SVG 20010904//EN"
 "http://www.w3.org/TR/2001/REC-SVG-20010904/DTD/svg10.dtd">
<svg version="1.0" xmlns="http://www.w3.org/2000/svg"
 width="512.000000pt" height="512.000000pt" viewBox="0 0 512.000000 512.000000"
 preserveAspectRatio="xMidYMid meet">
<metadata>
Created by potrace 1.11, written by Peter Selinger 2001-2013
</metadata>
<g transform="translate(0.000000,512.000000) scale(0.100000,-0.100000)"
fill="#000000" stroke="none">
<path d="M10 2555 l0 -2555 2555 0 2555 0 0 2555 0 2555 -2555 0 -2555 0 0
-2555z m3902 1342 c-65 -63 -331 -317 -592 -567 -261 -249 -497 -474 -524
-501 l-49 -47 83 -112 84 -112 -28 -84 -27 -84 27 -137 c27 -137 28 -139 107
-273 44 -74 95 -151 113 -170 l33 -35 -29 -114 c-24 -97 -36 -125 -85 -198
-51 -77 -59 -85 -83 -80 -15 3 -91 16 -169 28 l-143 23 0 55 0 56 -142 142
-143 143 -107 0 -106 0 -6 -27 c-3 -16 -15 -86 -27 -158 -18 -116 -122 -519
-138 -537 -4 -4 -157 80 -341 187 l-334 195 -138 386 c-76 212 -138 391 -138
397 1 7 78 66 173 132 152 106 197 144 388 333 l217 214 113 29 c98 25 133 29
252 29 l137 0 0 53 0 52 115 115 c63 63 115 110 115 105 0 -6 -11 -75 -25
-155 -14 -80 -25 -151 -25 -157 0 -8 12 -13 28 -13 19 1 65 31 162 109 l135
109 3 -49 c2 -27 6 -49 9 -49 3 0 278 198 610 440 333 242 607 440 608 440 2
0 -49 -51 -113 -113z"/>
</g>
</svg>
