<svg id="Layer_1" data-name="Layer 1" xmlns="http://www.w3.org/2000/svg" viewBox="0 0 32.8 32.8"><title>ig-icon-black</title><path d="M275.1,220.5h6.7a9.7,9.7,0,0,1,9.5,7.8,11,11,0,0,1,.2,2.2q0,6.4,0,12.7a9.8,9.8,0,0,1-10,10H268.7a9.8,9.8,0,0,1-10-10q0-6.4,0-12.8a9.8,9.8,0,0,1,10-10h6.4Zm13.1,16.4c0-2.1,0-4.2,0-6.3a7.5,7.5,0,0,0-.1-1.4,6.4,6.4,0,0,0-6.4-5.3H268.7a6.5,6.5,0,0,0-6.7,6.7q0,6.3,0,12.7a6.5,6.5,0,0,0,6.7,6.7h12.7a6.5,6.5,0,0,0,6.7-6.7C288.2,241.1,288.2,239,288.2,236.9Z" transform="translate(-258.7 -220.5)"/><path d="M283.6,236.9a8.5,8.5,0,1,1-8.4-8.5A8.5,8.5,0,0,1,283.6,236.9Zm-3.3,0a5.2,5.2,0,1,0-5.2,5.2A5.2,5.2,0,0,0,280.3,236.9Z" transform="translate(-258.7 -220.5)"/><path d="M285.6,228.5a2,2,0,1,1-2-2A2,2,0,0,1,285.6,228.5Z" transform="translate(-258.7 -220.5)"/></svg>