<?xml version="1.0" encoding="utf-8"?>
<!-- Generator: Adobe Illustrator 21.0.2, SVG Export Plug-In . SVG Version: 6.00 Build 0)  -->
<svg version="1.1" id="Layer_1" xmlns="http://www.w3.org/2000/svg" xmlns:xlink="http://www.w3.org/1999/xlink" x="0px" y="0px"
	 viewBox="0 0 103.5 103.5" style="enable-background:new 0 0 103.5 103.5;" xml:space="preserve">
<title>li-icon-black</title>
<g id="Layer_2">
	<g id="Layer_1-2">
		<path d="M9.5,0h84.6c0.1,0.1,0.2,0.1,0.3,0.1c5.3,0.8,9.2,5.5,9,10.9c-0.1,27,0,54.1,0,81.1c0,6.5-4.5,11-11,11H11.2
			c-6.5,0-11-4.5-11-11c0-27.1,0-54.1,0-81.2c0-0.3,0-0.5,0-0.8c0-3.6,2-7,5.2-8.7C6.7,0.9,8.1,0.4,9.5,0z M57,87.7v-1.1
			c0-8.6,0-17.1,0-25.7c-0.1-2.1,0.7-4.1,2.1-5.6c2.7-3.1,7.4-3.5,10.5-0.8c0.3,0.3,0.6,0.5,0.8,0.8c1.4,1.6,2.1,3.6,2,5.7
			c0,8.5,0,17.1,0,25.6v1.1h15.5c0-0.3,0.1-0.5,0.1-0.8c0-9.4,0-18.8,0-28.2c0.1-4.6-1.6-9-4.6-12.3c-3-3.5-7.3-5.7-11.9-6.1
			c-4.9-0.4-9,1.5-12.6,4.9c-0.6,0.6-1.1,1.3-1.8,2.1v-5.9H41.5v46.3H57z M15.7,41.3v46.3h15.4V41.3H15.7z M32.7,23.2
			c0.1-5.1-4-9.2-9-9.3c-0.1,0-0.2,0-0.3,0c-5-0.1-9.2,3.9-9.3,9c0,0.1,0,0.2,0,0.3c0,5.1,4.2,9.3,9.4,9.2
			C28.5,32.4,32.6,28.3,32.7,23.2L32.7,23.2z"/>
	</g>
</g>
</svg>
